<svg width="80" height="34" viewBox="0 0 80 34" fill="none" xmlns="http://www.w3.org/2000/svg">
<rect x="46" width="34" height="34" rx="17" fill="#3456F3"/>
<path fill-rule="evenodd" clip-rule="evenodd" d="M64.7929 18.2638C63.361 19.6957 61.0394 19.6957 59.6075 18.2638C58.1755 16.8318 58.1755 14.5102 59.6075 13.0783C61.0394 11.6464 63.361 11.6464 64.7929 13.0783C66.2248 14.5102 66.2248 16.8318 64.7929 18.2638ZM65.2333 19.6467C63.2731 21.1461 60.4575 20.9994 58.6647 19.2066C56.712 17.254 56.712 14.0881 58.6647 12.1355C60.6173 10.1829 63.7831 10.1829 65.7357 12.1355C67.5285 13.9283 67.6753 16.7437 66.1761 18.7039L69.7428 22.2706L68.8 23.2134L65.2333 19.6467Z" fill="white"/>
</svg>
